<?xml version="1.0" encoding="UTF-8"?>
<svg width="200" height="50" viewBox="0 0 200 50" version="1.1" xmlns="http://www.w3.org/2000/svg">
  <g fill="#15803D">
    <path d="M25,5 C13.954305,5 5,13.954305 5,25 C5,36.045695 13.954305,45 25,45 C36.045695,45 45,36.045695 45,25 C45,13.954305 36.045695,5 25,5 Z M25,8 C34.3888407,8 42,15.6111593 42,25 C42,34.3888407 34.3888407,42 25,42 C15.6111593,42 8,34.3888407 8,25 C8,15.6111593 15.6111593,8 25,8 Z"/>
    <path d="M25,12 C17.8203125,12 12,17.8203125 12,25 C12,32.1796875 17.8203125,38 25,38 C32.1796875,38 38,32.1796875 38,25 C38,17.8203125 32.1796875,12 25,12 Z M25,15 C30.5228475,15 35,19.4771525 35,25 C35,30.5228475 30.5228475,35 25,35 C19.4771525,35 15,30.5228475 15,25 C15,19.4771525 19.4771525,15 25,15 Z"/>
    <path d="M25,20 C22.2385763,20 20,22.2385763 20,25 C20,27.7614237 22.2385763,30 25,30 C27.7614237,30 30,27.7614237 30,25 C30,22.2385763 27.7614237,20 25,20 Z"/>
  </g>
  <text x="60" y="33" font-family="Arial" font-size="24" font-weight="bold" fill="#15803D">Avante Nutris</text>
</svg>